<svg width="24" height="24" viewBox="0 0 24 24" fill="none" xmlns="http://www.w3.org/2000/svg">
<path fill-rule="evenodd" clip-rule="evenodd" d="M18 4.5C18.828 4.5 19.5 3.828 19.5 3C19.5 2.172 18.828 1.5 18 1.5C17.172 1.5 16.5 2.172 16.5 3C16.5 3.828 17.172 4.5 18 4.5Z" fill="#8595A8"/>
<path fill-rule="evenodd" clip-rule="evenodd" d="M19.5 18.75H4.5C4.086 18.75 3.75 18.4132 3.75 18C3.75 17.5868 4.086 17.25 4.5 17.25H19.5C19.914 17.25 20.25 17.5868 20.25 18C20.25 18.4132 19.914 18.75 19.5 18.75ZM12 21.75C11.586 21.75 11.25 21.4132 11.25 21C11.25 20.5868 11.586 20.25 12 20.25C12.414 20.25 12.75 20.5868 12.75 21C12.75 21.4132 12.414 21.75 12 21.75ZM6 11.25C6 7.94175 8.69175 5.25 12 5.25C15.3082 5.25 18 7.94175 18 11.25V15.75H6V11.25ZM19.5 15.75V11.25C19.5 7.36725 16.5345 4.1655 12.75 3.78825V1.5C12.75 1.086 12.4148 0.75 12 0.75C11.5852 0.75 11.25 1.086 11.25 1.5V3.78825C7.4655 4.1655 4.5 7.36725 4.5 11.25V15.75C3.2595 15.75 2.25 16.7595 2.25 18C2.25 19.2405 3.2595 20.25 4.5 20.25H9.88875C9.804 20.4855 9.75 20.7353 9.75 21C9.75 22.2405 10.7595 23.25 12 23.25C13.2405 23.25 14.25 22.2405 14.25 21C14.25 20.7353 14.196 20.4855 14.1112 20.25H19.5C20.7405 20.25 21.75 19.2405 21.75 18C21.75 16.7595 20.7405 15.75 19.5 15.75Z" fill="#8595A8"/>
</svg>
