<svg width="24" height="24" viewBox="0 0 24 24" fill="none" xmlns="http://www.w3.org/2000/svg">
<path fill-rule="evenodd" clip-rule="evenodd" d="M15 21.75H21.75V8.6595L12 2.39175L2.25 8.6595V21.75H9V15.75C9 15.336 9.336 15 9.75 15H14.25C14.664 15 15 15.336 15 15.75V21.75ZM22.5 23.25H14.25C13.836 23.25 13.5 22.914 13.5 22.5V16.5H10.5V22.5C10.5 22.914 10.164 23.25 9.75 23.25H1.5C1.086 23.25 0.75 22.914 0.75 22.5V8.25C0.75 7.995 0.87975 7.75725 1.09425 7.61925L11.5942 0.86925C11.8418 0.71025 12.1582 0.71025 12.4058 0.86925L22.9058 7.61925C23.1203 7.75725 23.25 7.995 23.25 8.25V22.5C23.25 22.914 22.914 23.25 22.5 23.25Z" fill="#8F00FF"/>
</svg>
