<svg width="24" height="24" viewBox="0 0 24 24" fill="none" xmlns="http://www.w3.org/2000/svg">
<path fill-rule="evenodd" clip-rule="evenodd" d="M11.25 21.75H12.75V19.3493C12.75 18.993 13.0012 18.6855 13.3507 18.6143C14.1622 18.45 14.9348 18.1328 15.6473 17.6737C15.9428 17.4825 16.3335 17.523 16.584 17.7735L18 19.1895L19.1895 18L17.7735 16.584C17.5238 16.3342 17.4825 15.945 17.673 15.648C18.1335 14.9333 18.4508 14.1607 18.6135 13.3507C18.6848 13.0012 18.9923 12.75 19.3493 12.75H21.75V11.25H19.3493C18.9923 11.25 18.6848 10.9988 18.6135 10.6493C18.4508 9.83925 18.1335 9.06675 17.673 8.352C17.4825 8.055 17.5238 7.66575 17.7735 7.416L19.1895 6L18 4.8105L16.584 6.2265C16.3335 6.47625 15.9428 6.5175 15.6473 6.32625C14.9348 5.86725 14.1622 5.55 13.3507 5.38575C13.0012 5.3145 12.75 5.007 12.75 4.65075V2.25H11.25V4.65075C11.25 5.007 10.9988 5.3145 10.6493 5.38575C9.83775 5.55 9.06525 5.86725 8.35275 6.32625C8.055 6.5175 7.665 6.47625 7.416 6.2265L6 4.8105L4.8105 6L6.2265 7.416C6.47625 7.66575 6.5175 8.05575 6.32625 8.35275C5.86725 9.06525 5.55 9.83775 5.38575 10.6493C5.3145 10.9988 5.007 11.25 4.65075 11.25H2.25V12.75H4.65075C5.007 12.75 5.3145 13.0012 5.38575 13.3507C5.55 14.1622 5.86725 14.9348 6.32625 15.6473C6.5175 15.9443 6.47625 16.3342 6.2265 16.584L4.8105 18L6 19.1895L7.416 17.7735C7.665 17.5238 8.055 17.4818 8.35275 17.6737C9.06525 18.1328 9.83775 18.45 10.6493 18.6143C10.9988 18.6855 11.25 18.993 11.25 19.3493V21.75ZM13.5 23.25H10.5C10.086 23.25 9.75 22.914 9.75 22.5V19.938C9.1665 19.7722 8.6025 19.5413 8.064 19.2465L6.53025 20.7803C6.237 21.0735 5.763 21.0735 5.46975 20.7803L3.21975 18.5303C2.9265 18.237 2.9265 17.763 3.21975 17.4697L4.7535 15.936C4.45875 15.3975 4.22775 14.8335 4.062 14.25H1.5C1.086 14.25 0.75 13.914 0.75 13.5V10.5C0.75 10.086 1.086 9.75 1.5 9.75H4.062C4.22775 9.1665 4.45875 8.6025 4.7535 8.064L3.21975 6.53025C2.9265 6.237 2.9265 5.763 3.21975 5.46975L5.46975 3.21975C5.763 2.9265 6.237 2.9265 6.53025 3.21975L8.064 4.7535C8.6025 4.45875 9.1665 4.22775 9.75 4.062V1.5C9.75 1.086 10.086 0.75 10.5 0.75H13.5C13.9148 0.75 14.25 1.086 14.25 1.5V4.062C14.8335 4.22775 15.3967 4.45875 15.936 4.7535L17.4697 3.21975C17.763 2.9265 18.237 2.9265 18.5303 3.21975L20.7803 5.46975C21.0735 5.763 21.0735 6.237 20.7803 6.53025L19.2465 8.064C19.5413 8.60325 19.7722 9.16725 19.938 9.75H22.5C22.9147 9.75 23.25 10.086 23.25 10.5V13.5C23.25 13.914 22.9147 14.25 22.5 14.25H19.938C19.7722 14.8328 19.5413 15.3967 19.2465 15.936L20.7803 17.4697C21.0735 17.763 21.0735 18.237 20.7803 18.5303L18.5303 20.7803C18.237 21.0735 17.763 21.0735 17.4697 20.7803L15.936 19.2465C15.3967 19.5413 14.8335 19.7722 14.25 19.938V22.5C14.25 22.914 13.9148 23.25 13.5 23.25Z" fill="#8595A8"/>
<path fill-rule="evenodd" clip-rule="evenodd" d="M12 9C10.3455 9 9 10.3455 9 12C9 13.6545 10.3455 15 12 15C13.6545 15 15 13.6545 15 12C15 10.3455 13.6545 9 12 9ZM12 16.5C9.51825 16.5 7.5 14.4818 7.5 12C7.5 9.51825 9.51825 7.5 12 7.5C14.4818 7.5 16.5 9.51825 16.5 12C16.5 14.4818 14.4818 16.5 12 16.5Z" fill="#8595A8"/>
</svg>
