<svg width="24" height="24" viewBox="0 0 24 24" fill="none" xmlns="http://www.w3.org/2000/svg">
<path fill-rule="evenodd" clip-rule="evenodd" d="M12 23.25C6.624 23.25 2.25 18.876 2.25 13.5C2.25 9.38326 4.86225 5.69251 8.7495 4.31551C9.1395 4.17676 9.5685 4.38151 9.70725 4.77226C9.84525 5.16301 9.6405 5.59201 9.2505 5.73001C5.96025 6.89476 3.75 10.0178 3.75 13.5C3.75 18.0488 7.45125 21.75 12 21.75C16.5487 21.75 20.25 18.0488 20.25 13.5C20.25 10.0178 18.0398 6.89476 14.7495 5.73001C14.3595 5.59201 14.1547 5.16301 14.2927 4.77226C14.4315 4.38226 14.8612 4.17826 15.2505 4.31551C19.1378 5.69251 21.75 9.38326 21.75 13.5C21.75 18.876 17.376 23.25 12 23.25Z" fill="#8595A8"/>
<path fill-rule="evenodd" clip-rule="evenodd" d="M12 9.75C11.586 9.75 11.25 9.414 11.25 9V1.5C11.25 1.086 11.586 0.75 12 0.75C12.414 0.75 12.75 1.086 12.75 1.5V9C12.75 9.414 12.414 9.75 12 9.75Z" fill="#8595A8"/>
</svg>
