<svg width="24" height="24" viewBox="0 0 24 24" fill="none" xmlns="http://www.w3.org/2000/svg">
<path fill-rule="evenodd" clip-rule="evenodd" d="M13.8106 21.75L14.7803 20.7803C14.9378 20.6228 15.0166 20.4038 14.9971 20.1825L14.3483 13.047C18.3571 14.0445 21.3976 17.5185 21.7216 21.75H13.8106ZM12.0001 21.4395L10.5286 19.968L11.1811 12.7897C11.8103 12.7365 12.1891 12.7365 12.8191 12.7897L13.4716 19.968L12.0001 21.4395ZM2.27856 21.75C2.60181 17.5185 5.64231 14.0445 9.65181 13.047L9.00306 20.1825C8.98281 20.4038 9.06231 20.6228 9.21981 20.7803L10.1896 21.75H2.27856ZM7.50006 6.75C7.50006 4.26825 9.51831 2.25 12.0001 2.25C14.4818 2.25 16.5001 4.26825 16.5001 6.75C16.5001 9.23175 14.4818 11.25 12.0001 11.25C9.51831 11.25 7.50006 9.23175 7.50006 6.75ZM15.3113 11.7487C16.9298 10.6725 18.0001 8.835 18.0001 6.75C18.0001 3.44175 15.3083 0.75 12.0001 0.75C8.69181 0.75 6.00006 3.44175 6.00006 6.75C6.00006 8.835 7.07031 10.6733 8.68881 11.7487C4.09656 13.1663 0.750061 17.4487 0.750061 22.5C0.750061 22.914 1.08606 23.25 1.50006 23.25H22.5001C22.9148 23.25 23.2501 22.914 23.2501 22.5C23.2501 17.4487 19.9036 13.1663 15.3113 11.7487Z" fill="#8595A8"/>
</svg>
